#!OML:ASF F:\VICON\USERDATA\INSTALL\rory3\rory3.ASF
:FULLY-SPECIFIED
:DEGREES
2174
root 0.400014 15.88 -0.863805 -0.747009 -2.61507 -1.11842
lowerback 14.0242 0.588724 -1.94346
upperback 3.0027 0.38746 -1.9159
thorax -4.68987 0.204422 -0.982215
lowerneck -10.6029 -5.9073 -12.0983
upperneck 20.5288 -8.55722 12.1084
head 9.22823 -3.80665 5.2179
rclavicle 3.18055e-015 2.22639e-014
rhumerus 75.4927 10.275 -437.871
rradius 67.0134
rwrist 341.053
rhand -22.5446 12.7795
rfingers 7.12502
rthumb 3.88284 -17.1649
lclavicle 3.18055e-015 2.22639e-014
lhumerus 77.5601 -11.4197 78.0909
lradius 65.1825
lwrist 49.3743
lhand -16.5506 29.5125
lfingers 7.12502
lthumb 9.66899 59.2706
rfemur -10.4666 12.1919 17.1539
rtibia 28.2382
rfoot -12.4154 -12.4663
rtoes -18.1521
lfemur -8.75789 -8.5151 -15.9849
ltibia 26.1564
lfoot -12.8031 8.4118
ltoes -15.1343
2175
root 0.402263 15.8985 -0.864625 -0.626975 -2.57736 -1.14927
lowerback 13.9808 0.614177 -1.83212
upperback 3.08132 0.441636 -1.89901
thorax -4.58251 0.229358 -1.03556
lowerneck -10.29 -5.80599 -12.0297
upperneck 21.3259 -8.48426 11.9009
head 9.4213 -3.79297 5.16761
rclavicle 3.77691e-015 -8.74653e-015
rhumerus 75.958 10.1529 -437.337
rradius 65.2997
rwrist 340.461
rhand -22.8952 12.174
rfingers 7.12502
rthumb 3.54426 -17.7763
lclavicle 3.77691e-015 -8.74653e-015
lhumerus 77.8633 -11.3773 78.2338
lradius 63.4286
lwrist 50.3128
lhand -17.0648 29.7747
lfingers 7.12502
lthumb 9.1728 59.5552
rfemur -10.3132 12.2816 17.1596
rtibia 27.7024
rfoot -12.2369 -12.5055
rtoes -17.7045
lfemur -8.60003 -8.70597 -15.9602
ltibia 25.6048
lfoot -12.5809 8.59406
ltoes -14.9572
2176
root 0.404959 15.9152 -0.867957 -0.49085 -2.4814 -1.06786
lowerback 13.9657 0.637481 -1.81783
upperback 3.16334 0.475824 -1.92488
thorax -4.48739 0.245556 -1.07575
lowerneck -9.9805 -5.70733 -11.8253
upperneck 22.0809 -8.41465 11.6132
head 9.59312 -3.77784 5.06348
rclavicle 1.88845e-014 -7.95139e-016
rhumerus 76.4543 9.99051 -436.92
rradius 63.4692
rwrist 340.308
rhand -22.9203 11.4473
rfingers 7.12502
rthumb 3.52003 -18.5034
lclavicle 1.88845e-014 -7.95139e-016
lhumerus 78.1579 -11.2622 78.5228
lradius 61.7472
lwrist 50.8505
lhand -16.7751 30.7173
lfingers 7.12502
lthumb 9.4523 60.4853
rfemur -10.2112 12.2534 17.0303
rtibia 27.2038
rfoot -12.0026 -12.5362
rtoes -17.128
lfemur -8.47875 -8.8771 -16.0539
ltibia 25.0247
lfoot -12.298 8.70194
ltoes -14.4947
2177
root 0.404196 15.9321 -0.875514 -0.376866 -2.3346 -1.1001
lowerback 14.0155 0.630245 -1.71769
upperback 3.25474 0.482832 -1.90081
thorax -4.41771 0.247796 -1.10796
lowerneck -9.63972 -5.60215 -11.7767
upperneck 22.8347 -8.32813 11.4214
head 9.77015 -3.75989 5.02377
rclavicle 2.42517e-014 -2.22639e-014
rhumerus 76.8823 9.81234 -436.526
rradius 61.6575
rwrist 340.21
rhand -22.6065 11.2685
rfingers 7.12502
rthumb 3.82314 -18.677
lclavicle 2.42517e-014 -2.22639e-014
lhumerus 78.4095 -11.0761 78.8391
lradius 59.9734
lwrist 51.2869
lhand -16.2515 31.5185
lfingers 7.12502
lthumb 9.95752 61.263
rfemur -10.1031 12.2918 17.05
rtibia 26.7632
rfoot -11.7831 -12.6946
rtoes -16.5043
lfemur -8.34374 -9.06161 -15.9988
ltibia 24.4137
lfoot -12.0162 8.78742
ltoes -13.9345
2178
root 0.402125 15.9478 -0.88439 -0.274345 -2.16442 -1.0194
lowerback 14.1099 0.587381 -1.80421
upperback 3.48016 0.419827 -1.84082
thorax -4.23322 0.216697 -0.984012
lowerneck -9.87257 -5.54947 -11.9081
upperneck 23.7749 -8.23616 11.2358
head 10.137 -3.73578 5.01321
rclavicle -9.93923e-016 8.74653e-015
rhumerus 77.5619 9.75534 -436.118
rradius 59.844
rwrist 340.154
rhand -22.0728 11.0755
rfingers 7.12502
rthumb 4.33849 -18.86
lclavicle -9.93923e-016 8.74653e-015
lhumerus 78.9686 -10.7411 79.083
lradius 58.0091
lwrist 51.8712
lhand -16.0657 31.908
lfingers 7.12502
lthumb 10.1368 61.6438
rfemur -10.0007 12.3475 16.9533
rtibia 26.3537
rfoot -11.6121 -12.8763
rtoes -16.1409
lfemur -8.21754 -9.23773 -16.0601
ltibia 23.8047
lfoot -11.6752 8.86915
ltoes -13.9185
2179
root 0.401165 15.9621 -0.89307 -0.142445 -2.041 -0.939521
lowerback 14.195 0.592933 -1.83689
upperback 3.50188 0.42001 -1.84926
thorax -4.25676 0.21713 -0.975311
lowerneck -9.33565 -5.40377 -11.8739
upperneck 24.5532 -8.11003 11.0577
head 10.2862 -3.70811 4.99141
rclavicle -1.09332e-014 1.43125e-014
rhumerus 77.855 9.71572 -435.805
rradius 57.9883
rwrist 340.124
rhand -21.7835 10.3787
rfingers 7.12502
rthumb 4.61786 -19.5509
lclavicle -1.09332e-014 1.43125e-014
lhumerus 79.1025 -10.6772 79.3348
lradius 56.0557
lwrist 52.591
lhand -15.9899 32.42
lfingers 7.12502
lthumb 10.2099 62.1523
rfemur -9.93955 12.4224 16.8526
rtibia 25.9235
rfoot -11.338 -13.0735
rtoes -16.2846
lfemur -8.14182 -9.31006 -16.1157
ltibia 23.2329
lfoot -11.3199 8.89837
ltoes -13.9129
